<?xml version="1.0" encoding="UTF-8" standalone="no"?> <svg id="Layer_1" data-name="Layer 1" xmlns="http://www.w3.org/2000/svg" viewBox="0 0 128 128"><defs><style>.cls-1{fill:#2e79bd;}.cls-2{fill:#2d3e50;}</style></defs><title>b</title><path class="cls-1" d="M107.22242,71.01015l-38.03778,7.066a2.82813,2.82813,0,0,1-.5644.04712c-1.38926-.02257-7.85121-.02257-9.24047,0a2.82813,2.82813,0,0,1-.5644-.04712l-38.03778-7.066a1.29439,1.29439,0,0,0-1.52962,1.328l1.74834,40.80125a1.29438,1.29438,0,0,0,1.03039,1.212l37.24043,7.72177A5.26059,5.26059,0,0,0,64,125.04242h0a5.26059,5.26059,0,0,0,4.73286-2.9692l37.24043-7.72177a1.29438,1.29438,0,0,0,1.03039-1.212L108.752,72.33818A1.29439,1.29439,0,0,0,107.22242,71.01015Z"/><path class="cls-2" d="M49.7146,44.7432h8.11094V40.19657a14.27542,14.27542,0,0,1-1.716-1.05481,12.79857,12.79857,0,0,1-1.93325-2.10956,12.21425,12.21425,0,0,1-2.42762-7.33V24.45023a23.57955,23.57955,0,0,0,4.54666.4345c5.39047,0,10.05361-1.7538,12.29857-4.30107A10.393,10.393,0,0,0,71.7551,22.92a17.87243,17.87243,0,0,0,4.49627,1.51135v5.27083a12.29975,12.29975,0,0,1-4.37346,9.39869,2.48567,2.48567,0,0,1-.31174.22987l-1.32242.86271V44.7432h8.04793c.11964,0,.23615-.00628.359-.01573h5.05669V22.6649A19.7073,19.7073,0,0,0,64,2.95758h0A19.7073,19.7073,0,0,0,44.29267,22.6649V44.72748h5.05669C49.47217,44.73692,49.595,44.7432,49.7146,44.7432Z"/><path class="cls-2" d="M68.49488,73.23439l30.5994-5.6837c-.45261-2.3712-.859-4.38752-1.01328-4.85558C96.255,57.24289,91.37885,54.99,86.405,53.056q-3.82682-1.48135-7.65371-2.96788a1.42817,1.42817,0,0,1-.13374-.05142c-.01541-.00515-.036-.0103-.05142-.01545l-8.33782,1.27049-.13886.7561a8.45554,8.45554,0,0,1-.77154,2.09861,16.22145,16.22145,0,0,1-1.57395,2.46893,23.14,23.14,0,0,1-2.06775,2.35579q-.82556.82556-1.67683,1.51737a21.63653,21.63653,0,0,1-1.67168-1.51737,22.58059,22.58059,0,0,1-2.07286-2.35579,16.219,16.219,0,0,1-1.57395-2.46893,8.22186,8.22186,0,0,1-.76643-2.09861l-.144-.7561-8.32753-1.27049c-.02056.00515-.04116.01545-.05657.02059-.04631.01541-.09258.036-.13374.05142q-3.82687,1.48135-7.65371,2.96273c-4.97387,1.934-9.8552,4.18692-11.68118,9.63914-.1543.46806-.56064,2.48438-1.01328,4.85558L59.509,73.23439C61.20122,73.21383,66.79234,73.21383,68.49488,73.23439ZM67.21412,60.51423A25.30622,25.30622,0,0,0,69.47733,57.927,19.0093,19.0093,0,0,0,71.257,55.13913a11.502,11.502,0,0,0,.77669-1.92371l5.00477-.76125c.02056.09773.036.20058.04628.288l.00515.072a11.78557,11.78557,0,0,1,.09773,1.20877l.01541.67381c-.00512.15945-.01541.3189-.02056.47835l-.01541.31375c-.0103.13889-.01545.27263-.02574.39092l-.06687.61209a24.18594,24.18594,0,0,1-1.02358,4.52638,32.6824,32.6824,0,0,1-1.69224,4.20748A33.20015,33.20015,0,0,1,72.759,68.15764L65.6916,61.91328C66.206,61.47608,66.71006,61.01314,67.21412,60.51423Zm-13.574,4.71154a33.6914,33.6914,0,0,1-1.69224-4.20233,24.37937,24.37937,0,0,1-1.01843-4.52123l-.06687-.61209c-.01545-.12859-.02059-.26748-.02571-.40122L50.8214,55.17c-.0103-.15945-.01541-.31375-.02056-.4732l.01027-.65325V54.023a11.78557,11.78557,0,0,1,.09773-1.20877l.0103-.072a2.15,2.15,0,0,1,.04116-.288l5.00473.76125a11.284,11.284,0,0,0,.77669,1.91856,18.77437,18.77437,0,0,0,1.7797,2.793,24.74921,24.74921,0,0,0,2.26832,2.58726c.49892.49892,1.00816.96185,1.51737,1.39905l-7.06733,6.24436C54.66882,67.2215,54.139,66.25449,53.64009,65.22577Z"/></svg>