<?xml version="1.0" encoding="UTF-8" standalone="no"?> <svg id="Layer_1" data-name="Layer 1" xmlns="http://www.w3.org/2000/svg" viewBox="0 0 128 128"><defs><style>.cls-1{fill:#2e79bd;}.cls-2{fill:#2d3e50;}</style></defs><title>b</title><path class="cls-1" d="M106.055,73.61115,69.0446,80.4863a2.75174,2.75174,0,0,1-.54916.04585c-1.35173-.022-7.63915-.022-8.99088,0a2.75174,2.75174,0,0,1-.54916-.04585L21.945,73.61115a1.25943,1.25943,0,0,0-1.4883,1.29217l1.70112,39.69918a1.25942,1.25942,0,0,0,1.00256,1.17927L59.395,123.295A5.11849,5.11849,0,0,0,64,126.184h0a5.11849,5.11849,0,0,0,4.605-2.889l36.23454-7.5132a1.25942,1.25942,0,0,0,1.00256-1.17927l1.70112-39.69918A1.25943,1.25943,0,0,0,106.055,73.61115Z"/><path class="cls-2" d="M51.2274,27.1798l.62061.48043v3.39319a2.452,2.452,0,0,0,2.45228,2.4473h5.91054a2.45514,2.45514,0,0,0,2.40725-1.97686l.60558-3.11293a3.27872,3.27872,0,0,1,1.54145-.05l.61557,3.163a2.45514,2.45514,0,0,0,2.40725,1.97686h5.91054a2.4488,2.4488,0,0,0,2.45231-2.4473V27.66023l.62559-.48043a.61309.61309,0,0,0,.2302-.47044v-1.076a.59059.59059,0,0,0-.59055-.58554H67.13231a2.454,2.454,0,0,0-2.32719,1.56647,5.05556,5.05556,0,0,0-1.60148.03,2.41972,2.41972,0,0,0-.56553-.88083,2.51415,2.51415,0,0,0-1.77168-.71567H51.58274a.58627.58627,0,0,0-.58554.58554v1.076A.59764.59764,0,0,0,51.2274,27.1798Zm15.30936-.14015a.718.718,0,0,1,.55551-.26022h6.6062a.7166.7166,0,0,1,.72068.71567v3.55833a.72087.72087,0,0,1-.72068.72068H67.78793a.71836.71836,0,0,1-.70565-.58554l-.69566-3.55335A.72911.72911,0,0,1,66.53675,27.03965Zm-12.95715.45544a.7166.7166,0,0,1,.72068-.71567h6.6062a.71793.71793,0,0,1,.55551.26022.6955.6955,0,0,1,.15013.59556l-.69062,3.55335a.72784.72784,0,0,1-.71069.58554H54.30028a.72087.72087,0,0,1-.72068-.72068Z"/><path class="cls-2" d="M67.08561,38.16H60.91445a1.04024,1.04024,0,0,0,0,2.08047h6.17116a1.04024,1.04024,0,0,0,0-2.08047Z"/><path class="cls-2" d="M44.30593,22.68556l2.70251,13.93307a17.3085,17.3085,0,0,0,33.98185,0l2.39724-12.35157.33534-1.74162A18.25932,18.25932,0,0,0,75.5452,4.74878a17.7732,17.7732,0,0,0-3.32312-1.6966A18.16164,18.16164,0,0,0,65.6259,1.816h-3.253A18.25909,18.25909,0,0,0,44.27591,22.52544Zm5.88552.34532c8.09257,0,15.33935-1.90178,20.21893-4.90459A24.61837,24.61837,0,0,0,79.664,23.24612L77.21177,35.883a13.45879,13.45879,0,0,1-26.42475,0L48.28467,22.99588C48.91523,23.0209,49.55084,23.03089,50.19145,23.03089Z"/><path class="cls-2" d="M68.41351,76.27578,98.792,70.63549l-.63561-7.84234a4.44777,4.44777,0,0,0-2.86267-3.268l-15.97-5.67533-15.32436,8.1226L48.675,53.84977,32.71,59.5251a4.45411,4.45411,0,0,0-2.86768,3.268l-.63561,7.84234,30.37847,5.64029C61.19676,76.25578,66.817,76.25578,68.41351,76.27578Z"/></svg>