<?xml version="1.0" encoding="UTF-8" standalone="no"?> <svg id="Layer_1" data-name="Layer 1" xmlns="http://www.w3.org/2000/svg" viewBox="0 0 128 128"><defs><style>.cls-1{fill:#2d3e50;}</style></defs><title>b</title><path class="cls-1" d="M39.53613,74.30414h13.89V66.518a24.45357,24.45357,0,0,1-2.93869-1.80635,21.91825,21.91825,0,0,1-3.31074-3.61267,20.91721,20.91721,0,0,1-4.15727-12.55278v-8.994a40.37779,40.37779,0,0,0,7.78617.74413c9.23123,0,17.21689-3.00341,21.06145-7.36562a17.7989,17.7989,0,0,0,5.41364,4.001,30.60988,30.60988,0,0,0,7.6999,2.58819v9.02632A21.06318,21.06318,0,0,1,77.491,64.64155a4.2598,4.2598,0,0,1-.53381.39362L74.6925,66.51259v7.79155H88.47465c.20491,0,.40441-.01079.6147-.027H97.749V36.49481a33.749,33.749,0,0,0-33.749-33.749h-.0001a33.749,33.749,0,0,0-33.749,33.749V74.27718h8.65967C39.12094,74.29335,39.33123,74.30414,39.53613,74.30414Z"/><path class="cls-1" d="M122.04741,122.355c-1.032-5.70592-3.2806-17.98907-3.79861-19.539-2.90314-8.68535-10.669-12.27113-18.58736-15.34293Q93.57809,85.106,87.47863,82.74691c-.07226-.02408-.14053-.05219-.21281-.0803-.02408-.008-.05219-.02007-.07629-.02809l-13.275,2.01974-.22486,1.20462A13.39769,13.39769,0,0,1,72.465,89.20775a25.8707,25.8707,0,0,1-2.50566,3.92707,36.60348,36.60348,0,0,1-3.29261,3.75442,35.67558,35.67558,0,0,1-2.66626,2.40925,34.89122,34.89122,0,0,1-2.66626-2.40925,37.1449,37.1449,0,0,1-3.29664-3.75442,26.32983,26.32983,0,0,1-2.50564-3.9311,13.29252,13.29252,0,0,1-1.22067-3.34083l-.22889-1.20462L40.82748,82.63853c-.0321.008-.06422.02408-.09235.0321-.07226.02811-.14053.05622-.21281.08032q-6.0894,2.36706-12.18279,4.72213c-7.91439,3.0718-15.68021,6.65758-18.58736,15.34293-.518,1.55-2.76665,13.83311-3.79861,19.539a2.45919,2.45919,0,0,0,2.42128,2.89913H119.62609A2.46127,2.46127,0,0,0,122.04741,122.355ZM50.05494,111.50536c-.91151-1.48567-1.75074-3.02761-2.54577-4.66591a51.73874,51.73874,0,0,1-2.69036-6.68968,38.707,38.707,0,0,1-1.62622-7.19163l-.10843-.97575c-.02007-.2088-.02811-.42564-.04014-.63845l-.0241-.51c-.01205-.253-.0241-.50191-.03212-.7549l.02007-1.036V89.011a18.07845,18.07845,0,0,1,.15661-1.92744l.01205-.11242c.012-.13652.03613-.29311.06424-.46177l7.9666,1.21266a18.57055,18.57055,0,0,0,1.24074,3.05572A29.737,29.737,0,0,0,55.283,95.22686a39.96344,39.96344,0,0,0,3.60587,4.1158q1.19255,1.18654,2.41725,2.22453ZM84.98106,90.842l-.0241.50193c-.01205.21684-.02007.42965-.04016.61838l-.10841.97976a38.75572,38.75572,0,0,1-1.62224,7.20366,52.992,52.992,0,0,1-2.69434,6.69371c-.79506,1.6383-1.63426,3.18023-2.54577,4.66591l-11.25119-9.93816q1.22266-1.036,2.41725-2.22453a39.96627,39.96627,0,0,0,3.60587-4.1158,29.87153,29.87153,0,0,0,2.83086-4.44508A18.05931,18.05931,0,0,0,76.78958,87.722l7.96662-1.21266a4.28519,4.28519,0,0,1,.06825.46177l.01205.11645a18.00715,18.00715,0,0,1,.15659,1.92341l.02009,1.06807C85.00514,90.33608,84.99309,90.589,84.98106,90.842Z"/></svg>